<?xml version="1.0" standalone="no"?>
<!DOCTYPE svg PUBLIC "-//W3C//DTD SVG 20010904//EN"
 "http://www.w3.org/TR/2001/REC-SVG-20010904/DTD/svg10.dtd">
<svg version="1.0" xmlns="http://www.w3.org/2000/svg"
 width="1000.000000pt" height="1000.000000pt" viewBox="0 0 1000.000000 1000.000000"
 preserveAspectRatio="xMidYMid meet">
<metadata>
Created by potrace 1.11, written by Peter Selinger 2001-2013
</metadata>
<g transform="translate(0.000000,1000.000000) scale(0.100000,-0.100000)"
fill="#000000" stroke="none">
<path d="M4930 9228 c-122 -214 -368 -641 -380 -658 -5 -8 -14 -24 -20 -35 -5
-11 -22 -41 -37 -67 -15 -25 -51 -86 -79 -135 -28 -48 -77 -133 -109 -188 -32
-55 -69 -120 -83 -144 -13 -24 -59 -103 -101 -175 -43 -73 -81 -138 -85 -146
-4 -8 -12 -24 -19 -35 -11 -18 -96 -165 -137 -236 -57 -100 -223 -387 -230
-399 -5 -8 -32 -53 -58 -100 -27 -47 -109 -188 -182 -315 -73 -126 -144 -250
-157 -274 -21 -36 -282 -487 -332 -573 l-15 -26 -1063 0 c-584 0 -1067 -3
-1073 -7 -6 -4 -10 -76 -10 -201 0 -176 2 -195 17 -201 10 -4 440 -7 955 -7
l937 -1 -13 -20 c-7 -11 -99 -168 -203 -350 -105 -181 -200 -346 -212 -365
-11 -19 -28 -48 -37 -65 -31 -56 -1066 -1849 -1122 -1945 -31 -52 -57 -97 -57
-100 0 -3 -8 -16 -16 -30 -42 -65 -129 -220 -129 -229 0 -5 -3 -11 -8 -13 -6
-2 -61 -95 -170 -288 -34 -61 -302 -524 -311 -540 -39 -62 -111 -192 -111
-199 0 -5 -4 -11 -8 -13 -4 -2 -19 -23 -33 -48 -30 -53 -51 -89 -129 -225
-114 -199 -111 -193 -92 -204 21 -11 9952 -9 9969 2 10 6 6 21 -15 60 -45 84
-303 529 -323 559 -11 15 -19 29 -19 31 0 3 -97 173 -216 378 -119 206 -226
392 -239 414 -111 195 -266 462 -275 472 -5 7 -10 14 -10 17 0 2 -72 129 -160
281 -88 153 -160 279 -160 281 0 2 -15 27 -33 56 -19 29 -45 73 -59 98 -25 45
-121 212 -139 240 -10 17 -61 107 -92 160 -10 19 -154 269 -320 555 -165 286
-358 621 -430 745 -71 124 -138 239 -148 255 l-18 31 935 -1 c514 0 944 3 955
7 18 7 19 18 19 202 0 187 -1 195 -20 201 -12 4 -495 7 -1075 7 l-1053 0 -128
221 c-70 122 -134 230 -143 241 -9 10 -16 21 -15 25 1 3 -4 15 -11 26 -17 27
-82 139 -113 195 -35 63 -116 203 -202 350 -40 69 -83 144 -96 167 -13 23 -63
108 -110 190 -114 195 -125 214 -138 238 -12 21 -160 279 -176 305 -20 33
-149 258 -170 295 -12 22 -48 83 -79 135 -30 52 -67 115 -81 140 -24 44 -136
238 -174 303 -37 64 -389 673 -408 707 -27 47 -38 60 -53 60 -7 0 -36 -42 -65
-92z m112 -788 c33 -59 58 -103 97 -168 17 -29 31 -57 31 -62 0 -6 5 -10 10
-10 6 0 10 -4 10 -9 0 -5 63 -118 141 -252 77 -133 151 -261 163 -283 13 -23
98 -169 188 -326 91 -157 173 -298 182 -315 9 -16 25 -44 35 -60 10 -17 154
-267 321 -555 166 -289 317 -550 335 -580 18 -30 37 -65 44 -77 l11 -21 -1610
0 c-886 0 -1610 1 -1610 3 0 2 38 70 85 150 47 81 85 151 85 156 0 5 5 9 10 9
6 0 10 4 10 9 0 5 131 235 290 511 160 276 290 506 290 511 0 5 5 9 10 9 6 0
10 4 10 9 0 7 94 172 170 301 5 8 53 92 106 185 112 195 340 593 354 615 5 8
48 84 97 167 96 167 91 164 135 83z m1842 -3191 c18 -30 44 -75 58 -100 14
-24 58 -100 98 -169 40 -68 81 -138 90 -155 9 -16 86 -149 170 -295 84 -146
158 -274 164 -285 6 -11 14 -22 17 -25 3 -3 12 -18 21 -35 8 -16 141 -248 295
-515 507 -878 694 -1202 712 -1234 10 -17 109 -188 221 -381 192 -331 355
-613 496 -860 35 -60 62 -111 60 -112 -6 -6 -8566 -7 -8572 -1 -3 3 6 23 19
45 14 21 170 290 348 598 314 544 505 876 801 1389 78 137 154 267 167 290 13
22 108 187 211 366 103 179 197 341 207 360 11 19 78 134 148 255 70 121 137
238 150 260 31 56 84 147 94 165 6 8 69 119 142 245 72 127 135 235 140 240 5
7 608 10 1859 10 l1852 0 32 -56z"/>
</g>
</svg>
