<?xml version="1.0" standalone="no"?>
<!DOCTYPE svg PUBLIC "-//W3C//DTD SVG 20010904//EN"
 "http://www.w3.org/TR/2001/REC-SVG-20010904/DTD/svg10.dtd">
<svg version="1.0" xmlns="http://www.w3.org/2000/svg"
 width="255.000000pt" height="255.000000pt" viewBox="0 0 255.000000 255.000000"
 preserveAspectRatio="xMidYMid meet">
<metadata>
Created by potrace 1.11, written by Peter Selinger 2001-2013
</metadata>
<g transform="translate(0.000000,255.000000) scale(0.100000,-0.100000)"
fill="#000000" stroke="none">
<path d="M1257 2545 c-1 -2 -38 -5 -82 -8 -44 -3 -100 -10 -125 -16 -25 -5
-58 -12 -75 -15 -92 -16 -270 -93 -380 -163 -224 -144 -387 -341 -498 -603 -6
-14 -11 -27 -12 -30 0 -3 -10 -36 -22 -75 -12 -38 -24 -86 -27 -105 -3 -19 -8
-46 -12 -60 -11 -43 -13 -312 -3 -365 5 -27 12 -63 15 -80 22 -133 100 -319
190 -455 101 -153 281 -316 456 -409 73 -40 213 -96 260 -105 13 -2 41 -9 63
-15 68 -18 145 -25 270 -25 113 0 229 9 247 21 5 2 21 6 36 9 33 5 52 9 72 17
8 3 33 11 55 18 146 44 336 161 466 287 167 160 281 352 345 581 32 114 39
174 39 326 0 173 -13 261 -59 398 -161 478 -581 813 -1082 862 -84 8 -134 12
-137 10z"/>
</g>
</svg>
