<?xml version="1.0" standalone="no"?>
<!DOCTYPE svg PUBLIC "-//W3C//DTD SVG 20010904//EN"
 "http://www.w3.org/TR/2001/REC-SVG-20010904/DTD/svg10.dtd">
<svg version="1.0" xmlns="http://www.w3.org/2000/svg"
 width="1200.000000pt" height="1200.000000pt" viewBox="0 0 1200.000000 1200.000000"
 preserveAspectRatio="xMidYMid meet">
<metadata>
Created by potrace 1.11, written by Peter Selinger 2001-2013
</metadata>
<g transform="translate(0.000000,1200.000000) scale(0.100000,-0.100000)"
fill="#000000" stroke="none">
<path d="M987 10367 c-71 -18 -123 -92 -118 -167 2 -26 52 -137 82 -180 31
-46 239 -412 239 -421 0 -5 5 -9 10 -9 6 0 10 -4 10 -9 0 -4 23 -48 52 -97 28
-49 61 -107 73 -129 13 -22 59 -102 104 -179 44 -76 81 -140 81 -143 0 -2 14
-24 30 -49 17 -24 28 -44 25 -44 -4 0 2 -12 13 -27 20 -29 233 -397 245 -423
4 -8 16 -28 27 -45 18 -29 49 -84 74 -132 6 -13 14 -23 19 -23 4 0 7 -4 7 -9
0 -5 44 -86 98 -179 54 -93 102 -175 105 -183 4 -8 17 -30 28 -49 78 -130 279
-480 279 -486 0 -4 6 -15 14 -23 8 -9 27 -41 44 -71 16 -30 67 -118 112 -195
80 -136 101 -174 157 -272 14 -27 62 -108 105 -182 43 -74 78 -137 78 -141 0
-4 8 -18 19 -31 10 -13 35 -55 56 -94 36 -66 65 -117 92 -160 7 -11 28 -47 46
-80 19 -33 76 -132 126 -219 51 -88 93 -164 94 -170 1 -8 -248 -11 -808 -12
-445 0 -829 -4 -853 -8 -61 -11 -107 -59 -122 -128 -8 -34 -11 -122 -8 -248 2
-166 6 -200 20 -223 29 -43 60 -67 102 -78 28 -8 357 -11 1056 -11 640 0 1019
-3 1027 -9 9 -8 169 -278 233 -396 9 -15 38 -66 65 -113 28 -47 57 -97 65
-112 8 -16 39 -70 69 -120 30 -51 62 -108 73 -125 40 -71 56 -100 87 -151 17
-29 31 -57 31 -62 0 -6 5 -10 10 -10 6 0 10 -4 10 -10 0 -5 25 -50 55 -101 30
-50 55 -94 55 -96 0 -3 22 -42 49 -87 27 -44 60 -101 74 -126 13 -25 79 -139
146 -254 66 -114 121 -212 121 -217 0 -5 5 -9 10 -9 6 0 10 -5 10 -11 0 -9 22
-50 110 -199 5 -8 35 -60 67 -115 32 -55 62 -108 68 -117 5 -9 17 -29 26 -45
8 -15 74 -129 146 -253 71 -124 141 -245 155 -270 14 -25 64 -112 112 -193 47
-82 98 -169 113 -195 78 -138 90 -156 121 -174 66 -39 157 -30 204 19 14 16
69 105 123 198 53 94 105 181 113 195 9 14 15 28 14 33 -1 4 2 7 8 7 5 0 10 4
10 8 0 5 64 119 141 253 322 556 359 621 359 630 0 5 5 9 10 9 6 0 10 4 10 9
0 5 36 70 80 145 44 76 80 141 80 146 0 6 4 10 8 10 4 0 13 12 20 27 6 16 23
46 36 68 14 22 29 47 33 55 4 9 78 136 163 283 85 148 163 282 173 300 76 133
292 507 454 785 106 184 193 338 193 343 0 5 4 9 9 9 5 0 11 9 14 19 4 18 32
19 1039 19 1128 0 1071 -3 1131 57 15 16 31 40 35 54 4 14 7 123 7 241 0 190
-2 219 -19 253 -22 44 -60 73 -107 83 -19 4 -404 7 -856 8 -565 0 -819 4 -814
11 5 5 18 27 30 48 12 20 30 54 42 75 12 20 55 96 97 167 41 72 108 186 147
255 40 69 114 197 165 285 51 88 101 176 112 195 107 188 406 703 424 732 13
21 24 40 24 42 0 3 34 62 75 131 41 70 75 129 75 131 0 3 12 23 27 47 15 23
26 45 25 50 -1 4 2 7 8 7 5 0 10 4 10 8 0 8 64 120 348 611 40 68 72 127 72
132 0 5 5 9 10 9 6 0 10 5 10 11 0 5 24 51 54 102 84 143 92 157 138 237 23
41 48 84 55 95 7 11 17 31 23 45 6 14 17 32 24 40 7 8 27 40 43 70 17 30 69
122 117 203 47 82 86 152 86 158 0 5 5 9 10 9 6 0 10 6 10 14 0 7 7 19 15 26
8 6 14 15 12 18 -1 7 28 58 187 327 67 115 70 123 71 185 0 76 -24 117 -84
147 -34 16 -291 17 -5026 19 -3196 1 -5004 -2 -5028 -9z m8876 -687 l189 0
-22 -37 c-13 -21 -30 -51 -40 -68 -144 -253 -195 -341 -200 -345 -3 -3 -16
-25 -29 -50 -14 -25 -81 -142 -149 -260 -69 -118 -134 -231 -145 -250 -10 -19
-104 -181 -207 -360 -103 -179 -197 -342 -208 -362 -12 -20 -32 -55 -46 -77
-15 -22 -26 -45 -26 -51 0 -5 -4 -10 -8 -10 -4 0 -15 -15 -23 -32 -8 -18 -68
-125 -134 -238 -65 -113 -135 -233 -154 -268 -20 -34 -78 -135 -130 -225 -52
-89 -105 -182 -119 -207 -14 -25 -33 -57 -43 -72 -11 -14 -19 -28 -19 -31 0
-5 -106 -189 -130 -227 -5 -8 -22 -37 -36 -65 -15 -27 -29 -52 -33 -55 -4 -3
-12 -16 -19 -30 -6 -14 -16 -32 -22 -40 -12 -18 -170 -292 -213 -370 -17 -30
-41 -72 -54 -92 -13 -21 -23 -42 -23 -47 0 -5 -3 -11 -7 -13 -5 -1 -16 -16
-25 -33 l-17 -30 -1773 0 -1773 0 -118 205 c-124 217 -295 513 -312 542 -5 9
-23 41 -39 70 -15 29 -34 60 -42 69 -8 8 -14 18 -14 22 0 4 -23 45 -50 92 -28
47 -61 103 -73 125 -27 48 -148 259 -162 282 -48 80 -75 129 -75 138 0 5 -4
10 -8 10 -4 0 -18 19 -30 43 -12 23 -36 67 -54 99 -18 31 -57 98 -87 150 -30
51 -63 109 -74 128 -10 19 -57 99 -103 177 -46 78 -84 144 -84 147 0 3 -16 30
-35 61 -19 30 -40 65 -45 77 -6 13 -33 61 -60 107 -28 46 -50 88 -50 92 0 5
-4 9 -10 9 -5 0 -10 5 -10 10 0 6 -11 27 -23 48 -13 20 -36 60 -52 87 -34 60
-96 170 -110 193 -6 9 -28 48 -50 87 -22 38 -45 79 -52 90 -7 11 -18 31 -25
45 -7 14 -15 27 -18 30 -5 5 -12 17 -52 89 -11 20 -35 61 -53 91 -18 30 -44
75 -57 100 -14 25 -75 131 -136 235 -79 136 -106 191 -96 195 10 4 6158 4
7897 0z m-2497 -4649 c-14 -24 -178 -309 -186 -321 -5 -8 -45 -78 -90 -155
-44 -77 -85 -147 -90 -155 -11 -17 -210 -363 -248 -430 -14 -25 -56 -99 -95
-165 -38 -66 -81 -140 -95 -165 -14 -25 -33 -58 -43 -75 -10 -16 -30 -52 -45
-80 -15 -27 -29 -52 -33 -55 -3 -3 -19 -30 -35 -60 -16 -30 -35 -62 -42 -71
-8 -8 -14 -19 -14 -22 0 -4 -18 -37 -40 -73 -22 -36 -40 -67 -40 -69 0 -2 -26
-48 -58 -102 -32 -54 -61 -105 -65 -113 -4 -8 -13 -24 -20 -35 -7 -11 -36 -62
-65 -112 -29 -51 -57 -95 -62 -98 -4 -3 -16 10 -25 28 -35 67 -53 97 -63 109
-5 7 -22 38 -38 68 -16 30 -32 60 -37 65 -16 19 -167 287 -167 296 0 5 -4 9
-10 9 -5 0 -10 4 -10 9 0 5 -39 75 -86 157 -47 82 -96 167 -109 189 -37 67
-85 149 -95 165 -5 8 -37 64 -72 125 -35 60 -67 117 -73 127 -9 15 -47 82
-102 178 -11 19 -43 73 -70 120 -27 47 -118 204 -202 350 -83 146 -156 272
-161 280 -5 8 -18 31 -29 52 l-18 36 1368 0 c753 0 1367 -3 1365 -7z"/>
</g>
</svg>
