<?xml version="1.0" standalone="no"?>
<!DOCTYPE svg PUBLIC "-//W3C//DTD SVG 20010904//EN"
 "http://www.w3.org/TR/2001/REC-SVG-20010904/DTD/svg10.dtd">
<svg version="1.0" xmlns="http://www.w3.org/2000/svg"
 width="1000.000000pt" height="1000.000000pt" viewBox="0 0 1000.000000 1000.000000"
 preserveAspectRatio="xMidYMid meet">
<metadata>
Created by potrace 1.11, written by Peter Selinger 2001-2013
</metadata>
<g transform="translate(0.000000,1000.000000) scale(0.100000,-0.100000)"
fill="#000000" stroke="none">
<path d="M17 9329 c-20 -12 -33 13 205 -398 88 -152 173 -298 188 -326 15 -27
49 -85 74 -128 25 -43 46 -82 46 -87 0 -6 5 -10 10 -10 6 0 10 -4 10 -9 0 -5
39 -76 86 -158 48 -81 98 -168 112 -193 14 -25 73 -128 132 -230 59 -102 117
-201 127 -220 11 -19 88 -152 170 -295 83 -143 160 -276 171 -295 11 -19 120
-208 242 -420 122 -212 233 -403 245 -425 13 -22 111 -193 219 -379 108 -187
196 -343 196 -348 0 -4 5 -8 10 -8 6 0 10 -4 10 -9 0 -5 48 -92 106 -193 58
-101 116 -201 129 -223 12 -22 53 -94 92 -160 l69 -120 -925 0 c-509 1 -937
-2 -951 -5 l-25 -6 -2 -197 c-2 -189 -2 -196 18 -202 11 -4 494 -7 1073 -7
l1052 1 13 -21 c14 -22 38 -65 79 -138 14 -25 33 -57 43 -72 11 -14 19 -29 19
-33 0 -4 31 -60 69 -124 90 -154 173 -297 201 -346 12 -22 44 -77 71 -123 27
-45 49 -87 49 -92 0 -6 5 -10 10 -10 6 0 10 -4 10 -9 0 -9 31 -64 480 -841
145 -250 271 -468 280 -485 10 -16 136 -235 280 -485 145 -250 273 -473 285
-495 37 -64 144 -249 155 -265 6 -8 14 -25 20 -37 21 -49 42 -27 140 144 52
91 107 187 122 212 15 25 33 57 40 71 7 14 15 27 18 30 3 3 12 19 21 35 9 17
175 305 369 640 194 336 396 684 448 775 52 91 117 202 143 248 27 45 49 85
49 88 0 3 8 18 19 32 10 15 70 117 133 227 63 110 158 274 210 365 53 91 105
181 115 200 11 19 82 142 158 272 l137 237 1063 -1 c585 0 1069 3 1075 7 16
10 14 390 -2 402 -8 5 -394 9 -954 8 l-941 0 60 105 c32 58 65 115 73 127 7
12 23 39 35 60 12 21 88 153 169 293 81 140 157 271 167 290 11 19 43 74 72
122 28 48 51 91 51 97 0 6 5 11 10 11 6 0 10 4 10 9 0 5 36 71 81 147 44 77
91 157 103 179 13 22 83 144 156 270 73 127 144 250 158 275 13 25 28 50 32
55 5 6 21 33 37 61 32 57 190 331 204 354 26 43 129 222 129 225 0 2 18 33 40
69 22 37 53 90 69 119 16 28 176 306 356 617 727 1256 660 1136 643 1147 -19
12 -9949 14 -9971 2z m9269 -412 c2 -2 -38 -76 -90 -164 -51 -89 -96 -167
-100 -175 -3 -7 -10 -20 -16 -28 -14 -22 -88 -149 -156 -268 -32 -57 -66 -115
-75 -130 -9 -15 -27 -47 -41 -72 -71 -126 -253 -438 -269 -462 -11 -15 -19
-30 -19 -33 0 -3 -26 -50 -57 -103 -31 -53 -56 -99 -54 -101 1 -2 -1 -7 -6
-10 -12 -8 -213 -358 -213 -370 0 -5 -4 -11 -8 -13 -7 -3 -48 -71 -122 -203
-43 -77 -473 -821 -516 -893 -24 -40 -44 -77 -44 -82 0 -4 -3 -10 -7 -12 -5
-1 -19 -23 -32 -48 -22 -40 -164 -286 -220 -380 -11 -19 -31 -55 -45 -80 -13
-25 -45 -81 -71 -125 -27 -44 -58 -98 -70 -120 -13 -22 -63 -110 -113 -195
l-89 -155 -1853 0 c-1842 0 -1853 0 -1864 20 -6 11 -13 22 -16 25 -3 3 -10 14
-16 25 -13 23 -398 692 -504 875 -40 69 -84 145 -98 170 -14 25 -124 216 -245
425 -120 209 -229 398 -242 420 -12 22 -55 96 -95 165 -40 69 -80 139 -90 155
-9 17 -68 118 -130 225 -62 107 -121 209 -131 227 -28 49 -479 830 -693 1201
-163 283 -165 286 -156 292 9 5 8561 2 8566 -3z m-2698 -4680 c-13 -23 -27
-45 -31 -48 -5 -3 -8 -9 -8 -13 1 -3 -5 -16 -13 -29 -44 -69 -236 -410 -236
-418 0 -5 -4 -9 -10 -9 -5 0 -10 -4 -10 -8 0 -5 -119 -214 -264 -464 -145
-251 -266 -462 -270 -470 -3 -7 -16 -29 -27 -48 -33 -56 -124 -211 -151 -260
-14 -25 -90 -155 -168 -290 -78 -135 -152 -261 -162 -280 -100 -176 -223 -387
-231 -398 -7 -9 -27 16 -73 94 -35 59 -64 108 -64 109 0 2 -140 245 -311 541
-171 297 -321 555 -331 574 -59 102 -554 960 -572 990 -12 19 -33 56 -46 83
-14 26 -28 47 -32 47 -5 0 -8 5 -8 11 0 5 -40 80 -90 165 -49 85 -90 157 -90
159 0 2 725 4 1610 4 l1611 0 -23 -42z"/>
</g>
</svg>
