<?xml version="1.0" standalone="no"?>
<!DOCTYPE svg PUBLIC "-//W3C//DTD SVG 20010904//EN"
 "http://www.w3.org/TR/2001/REC-SVG-20010904/DTD/svg10.dtd">
<svg version="1.0" xmlns="http://www.w3.org/2000/svg"
 width="255.000000pt" height="255.000000pt" viewBox="0 0 255.000000 255.000000"
 preserveAspectRatio="xMidYMid meet">
<metadata>
Created by potrace 1.11, written by Peter Selinger 2001-2013
</metadata>
<g transform="translate(0.000000,255.000000) scale(0.100000,-0.100000)"
fill="#000000" stroke="none">
<path d="M1440 2505 c-19 -7 -52 -11 -74 -8 -22 2 -55 -3 -78 -12 -22 -8 -43
-13 -48 -10 -4 3 -29 -13 -56 -35 -26 -21 -73 -53 -103 -69 -96 -52 -121 -84
-178 -220 -12 -30 -38 -70 -56 -90 -41 -43 -87 -115 -93 -145 -2 -12 -6 -40
-8 -61 -3 -22 -17 -83 -31 -135 -40 -143 -40 -146 -51 -240 -14 -121 -8 -250
13 -311 l20 -57 -141 -133 c-302 -288 -346 -340 -372 -440 -13 -49 -7 -96 18
-146 9 -19 7 -28 -16 -57 l-27 -36 57 -52 c112 -106 206 -187 231 -202 23 -13
97 -1 145 24 70 36 182 174 306 377 53 86 68 100 112 108 28 5 64 19 161 64
36 17 84 33 105 37 21 3 45 11 53 17 8 7 16 11 18 9 6 -6 65 9 158 40 92 31
176 78 230 128 17 15 58 46 93 69 35 24 66 49 68 56 3 7 23 25 44 39 22 14 54
43 72 63 18 20 45 49 59 63 34 35 139 175 139 186 0 5 14 23 30 39 17 17 38
38 48 48 9 9 31 57 48 105 47 130 39 161 -84 292 -34 36 -77 85 -97 109 -41
50 -134 100 -232 125 -52 13 -135 14 -323 5 -58 -3 -139 -34 -182 -71 -26 -22
-48 -36 -48 -32 0 4 18 35 39 68 22 34 42 75 44 91 5 32 59 200 82 250 17 39
23 62 30 106 5 29 2 38 -12 44 -30 13 -76 13 -113 0z"/>
</g>
</svg>
