<?xml version="1.0" standalone="no"?>
<!DOCTYPE svg PUBLIC "-//W3C//DTD SVG 20010904//EN"
 "http://www.w3.org/TR/2001/REC-SVG-20010904/DTD/svg10.dtd">
<svg version="1.0" xmlns="http://www.w3.org/2000/svg"
 width="1200.000000pt" height="1200.000000pt" viewBox="0 0 1200.000000 1200.000000"
 preserveAspectRatio="xMidYMid meet">
<metadata>
Created by potrace 1.11, written by Peter Selinger 2001-2013
</metadata>
<g transform="translate(0.000000,1200.000000) scale(0.100000,-0.100000)"
fill="#000000" stroke="none">
<path d="M1011 10226 c-7 -8 70 -151 256 -472 146 -252 280 -484 297 -514 37
-66 263 -459 276 -480 9 -15 43 -74 92 -161 14 -24 108 -186 208 -359 100
-173 191 -331 202 -350 11 -19 30 -53 44 -75 13 -22 29 -49 34 -60 6 -11 14
-27 20 -35 19 -30 87 -145 91 -155 3 -8 191 -334 239 -415 12 -20 150 -260
164 -285 12 -21 134 -234 151 -263 6 -9 34 -60 64 -112 30 -52 58 -96 63 -98
4 -2 8 -8 8 -14 0 -6 45 -87 99 -182 54 -94 155 -268 223 -387 l125 -215 -934
0 c-514 1 -943 -2 -953 -6 -17 -6 -18 -21 -19 -195 0 -103 3 -194 7 -200 6
-10 237 -13 1073 -13 994 -1 1065 -2 1075 -18 6 -9 22 -37 36 -62 14 -25 58
-101 98 -170 40 -69 81 -141 92 -160 11 -19 41 -71 67 -115 25 -44 51 -88 56
-98 15 -26 253 -438 270 -467 22 -37 294 -508 320 -555 13 -22 62 -107 109
-189 47 -82 86 -153 86 -158 0 -4 5 -8 10 -8 6 0 10 -4 10 -9 0 -7 86 -160
290 -511 40 -69 81 -141 92 -160 51 -89 363 -631 392 -680 18 -30 57 -97 86
-147 29 -51 59 -93 66 -93 7 0 20 10 28 22 34 53 286 492 286 499 0 4 6 14 13
21 16 17 117 195 117 207 0 5 4 11 8 13 7 2 55 83 160 268 10 19 66 116 124
215 58 99 185 320 283 490 98 171 185 321 194 335 8 14 23 39 32 55 9 17 175
305 369 640 354 611 383 663 404 700 7 11 26 46 45 77 l32 57 1065 0 c586 0
1069 3 1074 6 5 3 9 94 9 201 0 182 -1 196 -19 202 -10 4 -440 7 -954 7 l-935
-1 18 31 c10 16 61 104 114 195 52 91 135 235 184 320 238 411 283 490 283
499 0 5 3 11 8 13 4 2 54 84 111 183 57 99 162 281 234 405 71 124 145 252
164 285 19 33 42 74 52 90 10 17 79 136 153 265 75 129 144 249 154 267 11 17
37 62 58 100 22 37 97 167 167 288 70 121 217 378 328 570 111 193 205 357
211 365 5 8 69 118 142 245 73 126 138 237 143 246 6 9 25 43 43 75 18 32 48
86 67 119 22 40 30 63 24 70 -15 15 -9966 16 -9978 1z m9276 -409 c1 -2 -27
-54 -62 -115 -36 -62 -65 -114 -65 -117 0 -3 -5 -11 -10 -18 -13 -15 -430
-736 -438 -757 -3 -8 -8 -17 -12 -20 -10 -8 -240 -412 -240 -421 0 -5 -4 -9
-10 -9 -5 0 -10 -4 -10 -9 0 -7 -65 -124 -100 -181 -24 -37 -140 -242 -140
-245 0 -2 -14 -24 -30 -48 -17 -25 -30 -47 -30 -50 0 -3 -19 -38 -43 -79 -24
-40 -55 -93 -69 -118 -14 -25 -100 -174 -192 -332 -91 -158 -166 -292 -166
-297 0 -5 -4 -11 -8 -13 -4 -1 -19 -23 -33 -48 -40 -71 -68 -119 -124 -215
-29 -49 -64 -110 -78 -135 -13 -25 -107 -187 -207 -360 -212 -365 -243 -420
-253 -440 -4 -8 -32 -55 -61 -105 l-54 -90 -1853 0 -1853 0 -92 160 c-51 88
-98 169 -105 180 -8 11 -14 22 -14 25 0 3 -8 16 -17 30 -21 33 -84 142 -121
210 -17 30 -45 79 -64 108 -18 29 -33 55 -33 59 0 3 -14 29 -32 57 -17 28 -40
67 -51 86 -11 19 -299 519 -640 1110 -341 591 -631 1093 -643 1115 -12 22 -67
118 -123 213 -55 96 -101 178 -101 183 0 5 -4 9 -10 9 -5 0 -10 5 -10 10 0 6
-17 38 -38 73 -20 34 -48 83 -62 110 -14 26 -28 47 -32 47 -5 0 -8 5 -8 10 0
9 -120 221 -217 385 l-30 50 4291 -3 c2359 -1 4291 -4 4293 -5z m-2701 -4680
c-42 -76 -43 -78 -276 -482 -95 -165 -181 -313 -191 -330 -27 -46 -113 -199
-118 -210 -2 -5 -8 -14 -13 -20 -7 -8 -163 -276 -270 -465 -11 -19 -113 -195
-226 -390 -113 -195 -239 -413 -280 -485 -41 -71 -97 -167 -123 -213 -27 -45
-49 -85 -49 -88 0 -3 -9 -19 -21 -35 l-21 -30 -29 46 c-16 25 -29 47 -29 50 0
2 -19 36 -43 77 -24 40 -55 93 -69 118 -14 25 -49 86 -78 135 -29 50 -62 108
-75 130 -12 22 -71 123 -130 225 -59 102 -118 203 -130 225 -36 63 -85 149
-95 165 -11 18 -130 223 -164 283 -12 23 -65 114 -116 202 -51 88 -103 178
-115 200 -13 22 -80 139 -150 260 -70 121 -138 238 -150 260 -13 22 -71 122
-129 223 -58 101 -106 185 -106 188 0 2 725 4 1610 3 l1610 0 -24 -42z"/>
</g>
</svg>
