<?xml version="1.0" standalone="no"?>
<!DOCTYPE svg PUBLIC "-//W3C//DTD SVG 20010904//EN"
 "http://www.w3.org/TR/2001/REC-SVG-20010904/DTD/svg10.dtd">
<svg version="1.0" xmlns="http://www.w3.org/2000/svg"
 width="516.000000pt" height="516.000000pt" viewBox="0 0 516.000000 516.000000"
 preserveAspectRatio="xMidYMid meet">
<metadata>
Created by potrace 1.11, written by Peter Selinger 2001-2013
</metadata>
<g transform="translate(0.000000,516.000000) scale(0.100000,-0.100000)"
fill="#000000" stroke="none">
<path d="M2265 5100 c-163 -22 -222 -31 -245 -40 -14 -5 -43 -12 -65 -16 -46
-7 -133 -32 -155 -43 -9 -5 -31 -12 -50 -16 -19 -4 -41 -11 -50 -15 -8 -4 -60
-25 -115 -46 -284 -110 -551 -289 -795 -534 -393 -393 -624 -848 -729 -1435
-23 -131 -33 -384 -21 -574 6 -102 13 -189 16 -193 3 -4 11 -43 19 -85 7 -43
20 -105 28 -138 9 -33 20 -80 27 -105 10 -41 31 -105 50 -155 33 -85 50 -123
96 -220 29 -60 67 -132 83 -160 17 -27 34 -57 38 -65 44 -93 251 -351 402
-501 235 -235 468 -393 756 -512 50 -21 97 -41 105 -46 9 -5 31 -12 50 -16 19
-4 41 -11 50 -16 8 -4 49 -17 90 -29 41 -11 91 -25 110 -31 38 -11 107 -24
215 -40 39 -5 99 -15 135 -20 91 -15 530 -5 650 14 113 19 230 42 285 57 76
21 276 90 323 111 313 140 499 264 748 499 200 189 355 384 464 585 24 44 54
100 68 125 66 120 158 382 196 555 31 145 36 173 51 303 37 325 4 707 -85
1007 -44 144 -121 339 -170 430 -18 33 -45 83 -61 112 -163 300 -501 655 -834
875 -68 45 -283 158 -355 187 -19 8 -54 22 -77 32 -23 11 -49 19 -57 19 -8 0
-17 4 -20 9 -3 5 -23 12 -43 16 -21 4 -42 10 -48 15 -5 4 -32 13 -60 19 -27 7
-77 19 -110 27 -33 9 -89 20 -125 25 -36 6 -81 15 -100 21 -42 13 -599 19
-685 8z m345 -680 c118 -11 295 -35 378 -50 73 -14 73 -14 -27 -93 -128 -101
-416 -329 -436 -345 -11 -10 -52 -42 -90 -72 -39 -30 -75 -59 -81 -65 -6 -6
-46 -37 -88 -69 -42 -33 -78 -68 -80 -80 -4 -21 -26 -200 -46 -366 -5 -47 -14
-122 -20 -168 -6 -45 -8 -87 -5 -92 4 -6 24 -10 47 -10 22 0 113 -6 202 -14
88 -8 232 -20 320 -26 87 -7 168 -15 180 -19 12 -3 75 -67 141 -141 65 -74
175 -194 244 -266 l126 -131 103 -11 c193 -22 386 -10 902 57 65 8 160 15 182
12 8 -1 -40 -140 -54 -155 -4 -6 -8 -16 -8 -24 0 -8 -6 -28 -14 -45 -8 -18
-31 -72 -51 -122 -19 -49 -40 -99 -45 -110 -5 -11 -19 -42 -31 -70 -43 -100
-138 -283 -199 -385 -161 -268 -360 -473 -605 -621 -127 -78 -187 -107 -253
-125 -357 -96 -519 -124 -723 -124 -179 0 -282 20 -406 80 -145 71 -261 203
-322 368 -13 34 -22 64 -20 66 2 1 233 60 514 129 280 70 512 130 516 135 5 6
-43 174 -71 247 -4 11 -24 72 -45 135 -80 252 -164 405 -284 517 -42 39 -74
52 -216 91 -307 84 -475 103 -1345 152 -102 6 -207 13 -233 17 -55 7 -54 -3
-16 128 11 39 27 95 35 125 9 30 19 64 24 75 4 11 24 72 45 135 20 63 40 124
45 135 5 11 21 49 36 85 140 343 327 596 576 781 175 129 206 149 308 200 130
65 308 119 440 132 73 8 359 6 450 -3z"/>
</g>
</svg>
